<svg width="30" height="30" viewBox="0 0 30 30" fill="none" xmlns="http://www.w3.org/2000/svg">
<rect width="29.4516" height="29.4516" fill="black"/>
<path d="M24.2899 12.7199C23.4374 9.79072 22.4759 8.27722 22.4604 8.25007C22.4056 8.18318 21.047 6.55732 17.7725 5.35474L17.3398 6.5328C18.8976 7.10493 20.0027 7.8029 20.6106 8.25388C18.7959 7.71199 16.6372 7.38012 14.7253 7.38012C12.8134 7.38012 10.6547 7.71199 8.84004 8.25388C9.44782 7.80294 10.553 7.10493 12.1108 6.5328L11.6781 5.35474C8.40366 6.55732 7.04504 8.18318 6.99024 8.25007C6.97472 8.27722 6.01323 9.79072 5.16072 12.7199C4.33909 15.5427 4.02696 19.5249 4.01562 19.6846C4.08884 19.7991 5.77268 22.674 10.3617 22.674L11.5248 20.9896C10.2217 20.6436 8.97906 20.0856 7.84157 19.3284L8.53699 18.2837C10.3721 19.5051 12.512 20.1508 14.7253 20.1508C16.9387 20.1508 19.0785 19.5051 20.9136 18.2837L21.609 19.3284C20.4716 20.0856 19.2289 20.6436 17.9258 20.9896L19.089 22.674C23.6779 22.674 25.3618 19.7991 25.435 19.6846C25.4236 19.5249 25.1115 15.5427 24.2899 12.7199ZM11.8237 16.0032H10.5687V13.9114H11.8237V16.0032ZM18.8819 16.0032H17.6269V13.9114H18.8819V16.0032Z" fill="white"/>
</svg>
