<svg width="15" height="14" viewBox="0 0 15 14" fill="none" xmlns="http://www.w3.org/2000/svg">
<path d="M4.29348 0.405273C3.35227 0.405273 2.48763 0.820412 1.85862 1.57431C1.22026 2.33958 0.868652 3.39744 0.868652 4.55313C0.868652 5.77252 1.27872 6.86308 2.19816 8.08913C3.08682 9.27425 4.40863 10.5191 5.93908 11.9606L5.94192 11.9632C6.47697 12.4672 7.08349 13.0385 7.71475 13.6485C8.3498 13.0373 8.95727 12.4651 9.49338 11.9604C11.0237 10.5189 12.3454 9.27425 13.2341 8.08913C14.1534 6.86308 14.5635 5.77252 14.5635 4.55313C14.5635 3.39744 14.2119 2.33958 13.5735 1.57431C12.9446 0.820412 12.0798 0.405273 11.1388 0.405273C10.4493 0.405273 9.81623 0.647503 9.25728 1.12516C8.75916 1.55103 8.41217 2.08937 8.20873 2.46606C8.10411 2.65976 7.91997 2.77538 7.71606 2.77538C7.51214 2.77538 7.328 2.65976 7.22338 2.46606C7.02006 2.08937 6.67307 1.55103 6.17483 1.12516C5.61588 0.647503 4.98285 0.405273 4.29348 0.405273Z" fill="white"/>
</svg>
