<svg width="226" height="51" viewBox="0 0 226 51" fill="none" xmlns="http://www.w3.org/2000/svg">
<g clip-path="url(#clip0)">
<path d="M226 15.1977V51.0001H4.98535V4.71094H214.077L226 15.1977Z" fill="#40FFFD"/>
<path d="M221.015 10.4867V46.2892H0V0H209.092L221.015 10.4867Z" fill="black"/>
<path d="M11.9233 35.8023V10.4866H19.7752L21.9355 25.93L24.0958 10.4866H31.9891V35.8023H27.2947V17.5734L24.345 35.8433H19.6921L16.5347 17.5734V35.8433H11.9233V35.8023Z" fill="white"/>
<path d="M34.2324 35.8023V10.4866H44.5354V15.4023H39.467V20.318H44.3276V25.1107H39.467V30.9276H44.8677V35.8433H34.2324V35.8023Z" fill="white"/>
<path d="M46.5713 35.8023V10.4866H54.4231L56.5834 25.93L58.7437 10.4866H66.6371V35.8023H61.9011V17.5734L58.9514 35.8433H54.34L51.1827 17.5734V35.8433H46.5713V35.8023Z" fill="white"/>
<path d="M68.8804 35.8023V10.4866H79.1833V15.4023H74.1149V20.318H78.9756V25.1107H74.1149V30.9276H79.5157V35.8433H68.8804V35.8023Z" fill="white"/>
<path d="M89.6109 34.1637C88.5308 32.9348 87.9907 31.1734 87.9907 28.8794V16.836C87.9907 14.6649 88.5308 13.0264 89.6109 11.8794C90.6911 10.7734 92.2698 10.1999 94.347 10.1999C96.4242 10.1999 98.0029 10.7734 99.083 11.8794C100.163 12.9854 100.703 14.624 100.703 16.836V28.8794C100.703 31.1734 100.163 32.9348 99.083 34.1637C98.0029 35.3927 96.4242 36.0071 94.347 36.0071C92.2698 36.0481 90.6911 35.4336 89.6109 34.1637ZM95.2609 30.8047C95.4271 30.3951 95.5102 29.8625 95.5102 29.1662V16.7541C95.5102 16.2216 95.4271 15.771 95.3025 15.4023C95.1363 15.0746 94.8455 14.8698 94.3885 14.8698C93.5161 14.8698 93.1007 15.5252 93.1007 16.7951V29.1662C93.1007 29.9035 93.1837 30.436 93.3499 30.8047C93.5161 31.1734 93.8484 31.3782 94.347 31.3782C94.804 31.3782 95.0948 31.1734 95.2609 30.8047Z" fill="white"/>
<path d="M102.739 35.8023V10.4866H113.042V15.4023H107.932V19.4577H112.792V24.3324H107.932V35.8433H102.739V35.8023Z" fill="white"/>
<path d="M123.885 35.8023V15.3204H120.852V10.4866H132.111V15.3613H129.078V35.8433H123.885V35.8023Z" fill="white"/>
<path d="M133.523 35.8023V10.4866H138.633V19.5396H141.042V10.4866H146.152V35.8023H141.042V24.2915H138.633V35.8023H133.523Z" fill="white"/>
<path d="M148.438 35.8023V10.4866H158.74V15.4023H153.672V20.318H158.533V25.1107H153.672V30.9276H159.073V35.8433H148.438V35.8023Z" fill="white"/>
<path d="M167.755 10.4866H174.859C176.687 10.4866 178.058 10.9782 178.972 12.0023C179.886 12.9854 180.343 14.5011 180.385 16.4674L180.426 28.3059C180.426 30.8047 180.011 32.689 179.097 33.9589C178.183 35.2288 176.729 35.8433 174.652 35.8433H167.755V10.4866ZM173.862 31.3372C174.818 31.3372 175.275 30.8866 175.275 29.9854V16.918C175.275 16.3445 175.233 15.9348 175.15 15.6481C175.067 15.3613 174.901 15.1565 174.652 15.0746C174.402 14.9927 174.029 14.9107 173.53 14.9107H172.948V31.3372H173.862Z" fill="white"/>
<path d="M181.839 35.8023L184.332 10.4866H193.056L195.507 35.8023H190.646L190.272 31.7059H187.157L186.866 35.8023H181.839ZM187.53 27.6915H189.857L188.735 14.7878H188.486L187.53 27.6915Z" fill="white"/>
<path d="M200.118 35.8022V27.4456L196.005 10.4456H201.074L202.528 19.048L203.982 10.4456H209.05L204.979 27.4456V35.8022H200.118Z" fill="white"/>
</g>
<defs>
<clipPath id="clip0">
<rect width="226" height="51" fill="white"/>
</clipPath>
</defs>
</svg>
