<svg width="23" height="23" viewBox="0 0 23 23" fill="none" xmlns="http://www.w3.org/2000/svg">
<g clip-path="url(#clip0)">
<path d="M21.3077 3.83327C21.3077 5.55347 19.9133 6.94798 18.1931 6.94798C16.4729 6.94798 15.0786 5.55347 15.0786 3.83327C15.0786 2.11326 16.4729 0.71875 18.1931 0.71875C19.9133 0.71875 21.3077 2.11326 21.3077 3.83327Z" fill="black"/>
<path d="M18.1931 7.66673C16.079 7.66673 14.3599 5.94741 14.3599 3.83327C14.3599 1.71931 16.079 0 18.1931 0C20.3073 0 22.0264 1.71931 22.0264 3.83327C22.0264 5.94741 20.3073 7.66673 18.1931 7.66673ZM18.1931 1.4375C16.8716 1.4375 15.7974 2.51282 15.7974 3.83327C15.7974 5.15391 16.8716 6.22923 18.1931 6.22923C19.5146 6.22923 20.5889 5.15391 20.5889 3.83327C20.5889 2.51282 19.5146 1.4375 18.1931 1.4375Z" fill="black"/>
<path d="M21.3077 19.1669C21.3077 20.887 19.9133 22.2815 18.1931 22.2815C16.4729 22.2815 15.0786 20.887 15.0786 19.1669C15.0786 17.4468 16.4729 16.0522 18.1931 16.0522C19.9133 16.0522 21.3077 17.4468 21.3077 19.1669Z" fill="black"/>
<path d="M18.1931 23.0002C16.079 23.0002 14.3599 21.2809 14.3599 19.1669C14.3599 17.0528 16.079 15.3335 18.1931 15.3335C20.3073 15.3335 22.0264 17.0528 22.0264 19.1669C22.0264 21.2809 20.3073 23.0002 18.1931 23.0002ZM18.1931 16.771C16.8716 16.771 15.7974 17.8463 15.7974 19.1669C15.7974 20.4874 16.8716 21.5627 18.1931 21.5627C19.5146 21.5627 20.5889 20.4874 20.5889 19.1669C20.5889 17.8463 19.5146 16.771 18.1931 16.771Z" fill="black"/>
<path d="M7.89133 11.4998C7.89133 13.22 6.49683 14.6143 4.77663 14.6143C3.05662 14.6143 1.66211 13.22 1.66211 11.4998C1.66211 9.77959 3.05662 8.38525 4.77663 8.38525C6.49683 8.38525 7.89133 9.77959 7.89133 11.4998Z" fill="black"/>
<path d="M4.77663 15.3331C2.66267 15.3331 0.943359 13.6139 0.943359 11.4998C0.943359 9.38564 2.66267 7.6665 4.77663 7.6665C6.89077 7.6665 8.61008 9.38564 8.61008 11.4998C8.61008 13.6139 6.89077 15.3331 4.77663 15.3331ZM4.77663 9.104C3.45512 9.104 2.38086 10.1791 2.38086 11.4998C2.38086 12.8204 3.45512 13.8956 4.77663 13.8956C6.09832 13.8956 7.17258 12.8204 7.17258 11.4998C7.17258 10.1791 6.09832 9.104 4.77663 9.104Z" fill="black"/>
<path d="M7.03937 11.0402C6.70579 11.0402 6.38186 10.8667 6.20551 10.5562C5.94387 10.0972 6.10496 9.51163 6.564 9.24894L15.4563 4.17944C15.9153 3.91587 16.5009 4.07696 16.7636 4.53776C17.0252 4.99681 16.8641 5.58237 16.4051 5.84506L7.51263 10.9146C7.36312 10.9998 7.20028 11.0402 7.03937 11.0402Z" fill="black"/>
<path d="M15.9307 18.9463C15.7696 18.9463 15.6068 18.9059 15.4573 18.8206L6.56485 13.7511C6.1058 13.4895 5.94489 12.9039 6.20653 12.4438C6.46711 11.9839 7.05355 11.8219 7.51365 12.0855L16.4061 17.155C16.8651 17.4166 17.026 18.0022 16.7644 18.4623C16.5872 18.7727 16.2632 18.9463 15.9307 18.9463Z" fill="black"/>
</g>
<defs>
<clipPath id="clip0">
<rect width="23" height="23" fill="white"/>
</clipPath>
</defs>
</svg>
