<svg width="26" height="25" viewBox="0 0 26 25" fill="none" xmlns="http://www.w3.org/2000/svg">
<path d="M23.9684 9.97425C23.8926 9.74073 23.691 9.57055 23.4482 9.53529L16.6281 8.54358L13.578 2.3595C13.4694 2.13935 13.2453 2 13 2C12.7547 2 12.5306 2.13935 12.4221 2.3595L9.37181 8.54358L2.55184 9.53529C2.30911 9.57055 2.10737 9.74073 2.03158 9.9742C1.95574 10.2077 2.01899 10.464 2.19468 10.6354L7.12954 15.449L5.96475 22.2461C5.92324 22.488 6.02267 22.7325 6.22114 22.8769C6.33342 22.9585 6.46641 23 6.60004 23C6.70265 23 6.8056 22.9755 6.89987 22.9259L13 19.7167L19.0999 22.9259C19.3171 23.0401 19.5802 23.0211 19.7786 22.8768C19.9771 22.7325 20.0766 22.488 20.0351 22.246L18.8699 15.449L23.8053 10.6353C23.981 10.464 24.0443 10.2077 23.9684 9.97425Z" stroke="black" stroke-width="2.5"/>
</svg>
