<svg width="30" height="30" viewBox="0 0 30 30" fill="none" xmlns="http://www.w3.org/2000/svg">
<rect width="29.4516" height="29.4516" fill="black"/>
<path d="M23.2351 9.69508C24.1062 9.07659 24.8389 8.3046 25.436 7.4157V7.41481C24.639 7.76377 23.7911 7.99581 22.9058 8.10826C23.8161 7.56474 24.5114 6.71065 24.838 5.68163C23.9893 6.18766 23.0522 6.54465 22.0535 6.74456C21.2476 5.886 20.099 5.35498 18.8459 5.35498C16.4148 5.35498 14.4576 7.32824 14.4576 9.74684C14.4576 10.0949 14.4871 10.4296 14.5594 10.7482C10.9092 10.5697 7.67842 8.82045 5.50792 6.15464C5.12952 6.81239 4.9064 7.56474 4.9064 8.37422C4.9064 9.89499 5.6891 11.2426 6.85734 12.0235C6.1514 12.0102 5.45973 11.8049 4.87338 11.4827V11.5309C4.87338 13.6648 6.39504 15.4372 8.3915 15.846C8.03362 15.9442 7.64451 15.9906 7.24021 15.9906C6.95909 15.9906 6.67528 15.9745 6.40932 15.9156C6.97783 17.6542 8.5932 18.9331 10.512 18.975C9.01802 20.1433 7.12062 20.8474 5.06704 20.8474C4.70738 20.8474 4.36199 20.8314 4.0166 20.7876C5.96219 22.0415 8.26656 22.7582 10.753 22.7582C18.5023 22.7582 23.5528 16.2931 23.2351 9.69508Z" fill="white"/>
</svg>
